# Blender v2.91.0 OBJ File: 'Cliff1.blend'
# www.blender.org
mtllib Ground.mtl
o Retopo_Cube.001_mesh.003
v -1.788900 -2.584188 -2.165381
v -1.163338 0.833389 1.612784
v 0.850000 -2.480154 1.979920
v -1.393031 -2.777882 2.466238
v -1.392070 0.688942 1.178748
v -2.172111 -2.777882 -0.783506
v -0.219219 -0.979028 -1.487148
v 1.637074 -2.777882 2.751855
v 1.127298 -1.889992 -1.997409
v 1.135829 -1.857142 1.573101
v 1.668305 -1.325534 1.467543
v 0.016018 -0.688883 1.441273
v 1.105831 -2.777882 2.796799
v -2.284601 -2.777882 2.619933
v 2.550716 -2.777882 -1.655954
v 1.131820 1.002670 -1.113259
v -0.000875 -1.748792 -2.416070
v 1.420155 -1.692859 1.010827
v -2.324140 -2.242787 1.728863
v 1.307666 -0.198809 0.726705
v 0.505476 -2.777882 -2.682516
v -1.022569 -1.915552 -1.259939
v -1.432744 -1.828909 -1.849037
v -1.306138 -2.777882 -2.485552
v -1.897894 -2.777882 -2.793793
v -2.336423 -2.777882 -2.679176
v -2.046418 -1.950455 -1.926477
v 1.088452 -1.316448 1.266073
v 0.677197 -1.409985 1.722850
v 1.592834 -1.856929 1.916175
v 1.420782 -1.517115 1.977129
v 2.108774 -2.777882 2.687833
v 1.979130 -2.042723 1.966852
v 1.886179 -1.821068 -0.721801
v 1.114001 -1.988027 -0.283366
v 2.603889 -2.777882 -1.166207
v 1.896613 -1.713226 -1.187885
v -1.821731 -1.667232 1.368394
v -1.632861 -1.523696 1.562165
v -0.722919 0.616216 1.508420
v 0.267876 -1.980233 1.918728
v 0.106154 -2.493296 2.271770
v -2.937529 -2.777882 0.958510
v -1.347500 -2.777883 3.000000
v -0.856016 -2.777883 3.000000
v -0.864657 -2.777882 2.952383
v -1.657850 -2.138096 2.037350
v -0.782097 -2.410243 2.427548
v -1.047302 -2.169193 1.944250
v -1.342274 -1.664315 1.862063
v -0.505988 -1.806669 2.113842
v 0.007047 -2.010407 1.402020
v -0.226243 -1.344356 1.696709
v -0.995367 1.222117 0.790097
v -2.632613 -2.777882 -0.940344
v -2.185851 -2.355641 -1.179839
v -2.999999 -2.777882 -0.747404
v -2.999999 -2.777882 -0.284882
v -0.761426 -0.507032 -0.711113
v -1.190551 0.799090 -1.151462
v -0.114634 1.002670 -1.212226
v -0.155366 -2.192393 -2.688223
v -0.529952 -1.659060 -1.892501
v -0.948866 -1.455426 -1.035415
v 0.414990 -0.792792 -1.035415
v 0.416382 -1.808797 -1.470365
v 0.400414 1.002670 -1.195277
v 0.829037 -2.059187 -2.163202
v 0.930502 -1.692419 -1.766626
v 1.237371 -1.174749 -1.608094
v 1.440470 -1.744712 -1.850616
v 1.401629 -2.777882 -2.631216
v 0.947328 -2.777882 -2.770813
v 1.871068 -2.777882 -0.725104
v -1.014746 -1.124364 1.584327
v -0.638335 -0.502175 1.654924
v 2.054338 -2.208357 1.524818
v 1.532616 -0.686185 1.296391
v 1.376006 -0.952186 1.608173
v 1.085586 -0.057025 1.445348
v 1.541581 0.005828 1.059229
v 1.252788 1.002670 1.271637
v 0.996883 0.493475 1.401571
v 0.862722 -0.260378 1.167260
v 0.392377 -0.237787 1.239617
v -0.064258 -0.422678 1.343808
v -0.409688 -1.097157 1.699253
v 0.656065 -2.777882 2.778713
v 0.317757 -2.777883 3.000000
v 0.951959 -2.777883 3.000000
v -2.790900 -2.777882 2.019120
v 1.666678 -1.821203 -1.526733
v 1.220257 -0.134462 -1.138590
v 1.076669 -0.262329 -1.273749
v 0.991508 1.002670 -1.151062
v 1.004633 1.222117 -0.934887
v 1.154158 1.002670 -0.933504
v 1.303383 -0.211158 -0.944694
v -0.995367 1.222117 -0.934887
v 0.397700 -2.340954 -1.782528
v 1.595209 -1.166177 0.751774
v 1.736917 -2.195626 0.981848
v 2.012615 -1.877775 0.517927
v -1.971716 -1.907025 1.707830
v -2.999999 -2.777883 3.000000
v 1.380958 -2.777883 3.000000
v -0.995367 1.222117 1.065113
v -0.995367 1.222117 0.279741
v -0.137593 0.616216 1.280425
v 1.420155 -0.734544 0.403696
v 1.336444 1.002669 0.537906
v -0.654849 -2.777882 -2.452121
v -1.294174 -1.263030 -1.372519
v -1.730319 -1.802773 -1.536449
v -1.645389 -1.407658 -1.035415
v -1.645389 0.799090 -0.783506
v -1.014484 -1.224449 -0.089627
v -2.657304 -2.777882 0.265132
v -0.214692 1.222117 -0.934887
v 0.272309 1.222117 -0.934887
v 0.796725 1.002670 -1.189948
v 0.887513 -0.486967 -1.383043
v 1.004633 1.222117 0.095045
v 1.229196 1.002670 0.071371
v 1.170748 1.002670 -0.594066
v 0.493872 -0.429228 -0.060742
v 1.341205 -0.393453 -0.578740
v 0.826930 -1.403486 -0.150367
v 1.590108 -1.375866 -0.699441
v 1.557414 -1.085582 -1.173826
v 1.451522 -0.985969 -1.393196
v 1.842173 -1.513678 0.161059
v 2.114249 -2.258946 0.018393
v 2.210533 -2.485997 0.469772
v 2.885189 -2.777882 -0.027083
v 2.853628 -2.777882 0.483202
v 2.999999 -2.777882 -0.835429
v 2.999999 -2.777882 0.431104
v 2.999999 -2.777882 -0.093556
v 2.999999 -2.777882 -1.193845
v 2.999999 -2.777882 -1.372735
v 2.999999 -2.777882 -1.877583
v 2.197393 -2.777882 -2.172863
v 2.999999 -2.777882 -2.999999
v 1.481373 -2.777882 -2.999999
v 1.064260 -2.777882 -2.999999
v 0.713376 -2.777882 -2.999999
v -0.077642 -2.777882 -2.816483
v -0.248517 -2.777882 -2.999999
v -0.733223 -2.777882 -2.999999
v -1.255509 -2.777882 -2.999999
v -1.824145 -2.777882 -2.999999
v -2.236747 -2.777882 -2.999999
v -2.790900 -2.777882 -2.525546
v -2.790900 -2.777882 -1.454987
v -2.247676 -2.402075 -1.613478
v -2.999999 -2.777882 -1.411175
v -2.999999 -2.777882 -2.999999
v 2.999999 -2.777882 1.095228
v 2.999999 -2.777883 1.599065
v 2.999999 -2.777883 1.978924
v 2.999999 -2.777883 3.000000
v 2.152961 -2.777883 3.000000
v 1.803787 -2.777883 3.000000
v 2.680619 -2.777882 2.221034
v 2.345152 -2.557933 1.553801
v 1.932743 -2.415322 1.025841
v 2.957449 -2.777882 1.749701
v 2.494046 -2.777882 1.166183
v 1.004633 1.222117 1.065113
v 0.586859 1.002670 1.261607
v -0.113123 0.309512 1.462497
v 0.362189 0.411627 1.439751
v 0.275020 -2.777882 -2.999999
v -2.999999 -2.777882 1.926092
v -2.872598 -2.777882 1.544938
v -2.999999 -2.777883 1.520329
v -2.999999 -2.777882 0.952061
v -2.999999 -2.777882 0.163498
v -0.356473 -2.777883 3.000000
v 0.152193 -2.777882 2.830765
v -2.386710 -2.382218 1.389028
v -0.691126 -1.683305 1.637160
v -0.284289 -2.087914 1.912592
v -0.444024 -2.777882 2.896717
v -1.695147 0.533662 0.624360
v -1.695147 0.533662 0.445477
vn 0.0686 0.7279 -0.6823
vn -0.0573 0.6574 -0.7514
vn -0.1464 0.7330 -0.6642
vn 0.1494 0.7398 -0.6561
vn 0.3314 0.7104 -0.6209
vn 0.0751 0.6617 -0.7460
vn -0.4429 0.7888 0.4262
vn -0.4862 0.6837 0.5442
vn -0.5037 0.6214 0.6002
vn 0.5742 0.3394 0.7451
vn 0.5119 0.3298 0.7932
vn 0.3207 0.2610 0.9105
vn 0.3188 0.3551 0.8788
vn 0.8565 0.3689 0.3612
vn 0.8036 0.4457 0.3945
vn 0.7996 0.3642 0.4774
vn 0.3042 0.6825 0.6645
vn 0.2437 0.6855 0.6861
vn 0.1594 0.6850 0.7109
vn 0.5054 -0.0110 0.8628
vn 0.5121 0.0546 0.8572
vn 0.5159 0.1089 0.8497
vn 0.7662 0.5972 -0.2373
vn 0.8419 0.5242 -0.1283
vn 0.8360 0.5224 0.1681
vn -0.8550 0.1775 0.4873
vn -0.1732 0.8274 0.5342
vn 0.1075 0.4097 0.9059
vn -0.0204 0.6975 0.7163
vn -0.0000 1.0000 0.0000
vn 0.1445 0.5468 0.8247
vn 0.1510 0.5044 0.8501
vn 0.1371 0.5901 0.7956
vn -0.4145 0.7439 0.5242
vn -0.1495 0.8059 0.5728
vn -0.1456 0.7474 0.6482
vn -0.5312 0.6698 0.5188
vn 0.2157 0.4091 0.8866
vn 0.1573 0.2895 0.9442
vn 0.1068 0.7788 0.6181
vn 0.3530 0.6007 0.7173
vn 0.1627 0.7940 0.5857
vn 0.8205 0.0994 0.5629
vn -0.4738 0.1562 0.8667
vn -0.8569 0.4239 -0.2932
vn -0.2423 0.6598 0.7113
vn -0.4693 -0.0905 -0.8784
vn -0.6325 0.4958 -0.5950
vn -0.5159 0.5888 -0.6222
vn -0.6370 0.3716 -0.6754
vn -0.6695 0.4571 -0.5855
vn -0.7165 0.4251 -0.5532
vn -0.6653 0.4652 -0.5840
vn 0.6690 0.5014 -0.5487
vn 0.7692 0.3644 -0.5249
vn 0.8372 0.2382 -0.4923
vn 0.3749 0.0193 -0.9269
vn -0.0138 0.5933 -0.8048
vn -0.2988 0.6463 -0.7022
vn -0.4414 0.4934 -0.7494
vn 0.3130 0.4075 -0.8579
vn 0.2711 0.5884 -0.7618
vn 0.1672 0.6281 -0.7600
vn 0.4358 0.5451 -0.7162
vn -0.0045 0.0537 0.9985
vn -0.1040 0.1061 0.9889
vn -0.0456 0.0980 0.9941
vn 0.1720 0.0583 0.9834
vn -0.5176 0.5535 0.6525
vn -0.8614 0.2107 0.4621
vn -0.7970 0.0322 0.6031
vn -0.8247 0.0949 0.5576
vn 0.7615 0.4057 0.5054
vn 0.7683 0.6254 0.1362
vn 0.7815 0.5824 -0.2237
vn 0.6625 0.2991 0.6868
vn 0.7154 0.3253 0.6184
vn 0.5613 0.0469 0.8263
vn 0.6102 0.1717 0.7734
vn 0.6087 0.1674 0.7756
vn -0.7531 -0.0693 0.6542
vn -0.7307 -0.0910 0.6766
vn -0.7403 -0.0818 0.6673
vn -0.7126 0.6226 0.3234
vn 0.1190 0.2880 0.9502
vn 0.0664 0.0813 0.9945
vn -0.0310 -0.0295 0.9991
vn 0.4680 0.3222 0.8229
vn 0.2595 0.3612 0.8957
vn 0.2759 0.1233 0.9532
vn 0.3311 0.2281 0.9156
vn 0.7021 0.6143 -0.3602
vn 0.7237 0.5147 -0.4597
vn 0.4888 0.0888 -0.8679
vn 0.4839 0.1838 -0.8556
vn 0.3539 0.2363 -0.9049
vn 0.3897 0.1092 -0.9145
vn 0.5804 0.6891 -0.4339
vn 0.7325 0.6529 -0.1927
vn 0.8988 0.3894 -0.2013
vn 0.9627 0.1012 -0.2509
vn 0.9701 0.2067 -0.1269
vn 0.9444 0.1990 -0.2618
vn 0.8852 0.1131 -0.4512
vn 0.9900 -0.0771 -0.1183
vn 0.9786 0.2031 -0.0319
vn 0.9740 0.0471 -0.2216
vn 0.6642 0.2490 0.7049
vn 0.7329 0.3172 0.6018
vn 0.7206 0.3043 0.6230
vn 0.7474 0.3678 -0.5533
vn 0.7420 0.4432 -0.5029
vn -0.6112 0.7658 0.2000
vn -0.4648 0.7248 0.5086
vn -0.3881 0.6676 0.6354
vn -0.3896 0.6551 0.6473
vn 0.0243 0.4089 0.9123
vn 0.9903 0.1252 -0.0607
vn 0.9710 0.1173 -0.2083
vn 0.9856 0.1201 -0.1190
vn 0.9800 0.1176 -0.1607
vn 0.9667 0.2266 0.1194
vn -0.5131 0.6424 -0.5693
vn -0.5805 0.5817 -0.5698
vn -0.8035 0.3428 -0.4867
vn -0.7065 0.3084 -0.6370
vn 0.7870 0.2287 -0.5730
vn 0.7731 0.1381 -0.6191
vn 0.7730 0.1375 -0.6194
vn 0.4018 0.7026 -0.5873
vn -0.6020 0.6339 -0.4855
vn -0.6651 0.0982 -0.7403
vn 0.7512 0.0466 -0.6584
vn -0.8402 -0.0233 0.5418
vn -0.8364 0.1232 0.5341
vn -0.8394 0.0803 0.5376
vn -0.9094 0.2959 -0.2922
vn -0.8372 -0.0752 0.5417
vn -0.5645 0.8093 -0.1622
vn -0.0507 0.6870 -0.7249
vn 0.0134 0.7694 -0.6386
vn 0.0094 0.7707 -0.6371
vn -0.0342 0.7128 -0.7005
vn -0.0931 0.6155 -0.7826
vn 0.0242 0.7504 -0.6605
vn 0.0279 0.7464 -0.6649
vn 0.2914 0.1273 -0.9481
vn 0.0912 0.2791 -0.9559
vn -0.3658 -0.0023 -0.9307
vn -0.4715 0.1080 -0.8752
vn -0.5260 0.1696 -0.8334
vn -0.6248 0.4002 -0.6704
vn 0.6740 0.7379 -0.0358
vn 0.6761 0.7360 -0.0355
vn 0.8760 0.4809 -0.0357
vn 0.8201 -0.1862 0.5411
vn 0.6991 -0.0526 0.7130
vn 0.6919 -0.0458 0.7205
vn 0.9786 0.2044 0.0219
vn 0.5380 0.1088 0.8359
vn 0.5310 0.1303 0.8373
vn 0.9001 0.4112 0.1442
vn 0.9175 0.3575 -0.1745
vn 0.7233 0.3710 -0.5824
vn 0.3821 0.3325 -0.8622
vn 0.5677 0.1062 -0.8163
vn 0.5175 0.1888 -0.8346
vn 0.3602 0.3285 -0.8732
vn 0.3852 0.5979 -0.7029
vn 0.3567 0.4353 -0.8266
vn 0.9398 0.3355 -0.0648
vn 0.9021 0.4289 0.0471
vn 0.9263 0.3765 -0.0170
vn 0.4932 0.8535 0.1683
vn 0.4721 0.8639 0.1755
vn 0.4759 0.8621 0.1742
vn 0.3948 0.6878 -0.6092
vn -0.6281 0.7652 -0.1410
vn -0.5887 0.8059 0.0629
vn -0.6604 0.7508 0.0105
vn -0.7246 0.6889 0.0203
vn -0.6496 0.7323 -0.2041
vn -0.7691 0.6274 0.1219
vn -0.8236 0.5469 0.1501
vn 0.5750 0.6082 -0.5473
vn 0.4768 0.6569 0.5841
vn 0.2854 0.9437 0.1676
vn 0.3630 0.9316 0.0211
vn 0.6069 0.7673 -0.2073
vn 0.7486 0.6472 -0.1439
vn 0.4864 0.8699 -0.0814
vn 0.6347 0.7412 -0.2185
vn 0.7774 0.3671 0.5108
vn 0.6558 -0.0717 -0.7515
vn 0.6170 0.7861 0.0365
vn 0.5990 0.8004 -0.0217
vn -0.0229 0.6150 0.7882
vn -0.0408 0.4006 0.9154
vn -0.0027 0.4603 0.8878
vn 0.6267 0.7760 0.0715
vn 0.1581 0.1349 0.9782
vn -0.0845 0.3530 0.9318
vn 0.0040 0.2680 0.9634
vn 0.1505 -0.2592 0.9540
vn 0.1547 -0.2546 0.9546
vn 0.1109 -0.3014 0.9470
vn -0.7013 0.7129 -0.0000
vn -0.6868 0.6537 -0.3178
vn -0.8706 0.4795 0.1102
vn -0.0262 0.6280 -0.7778
vn -0.6681 0.2943 -0.6834
vn 0.5658 0.6335 -0.5278
vn -0.6625 0.7484 0.0319
vn -0.6307 0.7355 0.2476
vn -0.7163 0.6794 0.1593
vn -0.7499 0.6580 0.0684
vn -0.7579 0.6416 0.1184
vn -0.7563 0.6370 0.1489
vn -0.6544 0.7396 0.1575
vn -0.3965 0.5717 0.7183
vn -0.1863 -0.0064 0.9825
vn -0.4553 0.4944 0.7404
vn -0.5157 0.5589 0.6494
vn -0.5470 0.5923 0.5916
vn 0.3193 0.2997 0.8990
vn 0.1045 0.8638 0.4929
vn 0.2073 0.3530 0.9124
vn -0.1718 0.8529 0.4931
vn -0.6185 0.7624 0.1902
vn 0.0751 0.9015 0.4263
vn 0.1011 0.9103 0.4014
vn -0.4544 0.2566 0.8530
vn -0.3470 0.1476 -0.9262
usemtl None
s 1
f 1//1 23//2 24//3 25//4
f 1//1 25//4 26//5 27//6
f 3//7 88//7 13//8 10//9
f 10//10 28//11 29//12 3//13
f 8//14 30//15 31//16
f 32//17 33//18 30//19 8//19
f 36//20 34//21 35//22 74//20
f 36//23 37//24 34//25
f 2//26 5//26 38//26 39//26
f 2//27 40//28 107//29 5//27
f 4//30 44//30 45//30 46//30
f 4//31 47//32 14//33
f 4//34 46//35 48//36 49//37
f 4//31 49//38 50//39 47//32
f 184//40 51//41 48//36 185//42
f 184//43 52//43 53//43 51//43
f 5//44 43//44 38//44
f 5//45 107//45 54//45 43//45
f 56//46 55//46 6//46
f 6//30 55//30 57//30 58//30
f 7//47 59//47 60//47 61//47
f 7//48 17//49 62//50 63//51
f 7//48 63//51 64//52 59//53
f 7//54 65//54 66//55 17//56
f 7//57 61//57 67//57 65//57
f 9//58 68//59 69//60 70//61
f 72//62 73//63 68//59 9//58
f 9//58 70//61 71//64 72//62
f 2//65 39//66 50//39 75//67
f 2//65 75//67 76//68 40//28
f 10//9 13//8 8//69 31//69
f 10//70 31//70 79//71 28//72
f 11//73 30//15 33//74 77//75
f 11//73 78//76 79//77
f 11//73 79//77 31//16 30//15
f 83//78 80//79 81//80 82//78
f 83//81 84//82 80//83
f 29//84 52//84 41//84
f 29//12 12//85 53//86 52//87
f 29//12 28//11 84//88 85//89
f 29//12 85//89 86//90 12//85
f 12//85 86//90 87//91 53//86
f 13//30 88//30 89//30 90//30
f 15//30 141//30 143//30
f 15//92 92//93 37//24 36//23
f 16//94 93//95 94//96 95//97
f 16//98 95//98 96//99 97//100
f 16//101 97//100 98//102 93//103
f 17//56 66//55 100//104 62//104
f 18//105 101//106 78//107 11//105
f 18//108 102//109 103//110 101//108
f 18//111 11//111 77//75 102//112
f 19//113 14//114 47//115 104//116
f 14//30 105//30 44//30 4//30
f 13//30 90//30 106//30 8//30
f 107//29 40//28 109//117
f 20//118 81//119 78//107 101//106
f 111//120 82//121 81//119 20//118
f 20//118 101//106 110//122 111//120
f 21//123 100//124 68//59 73//123
f 22//125 64//52 63//51 112//126
f 23//127 113//128 64//129 22//127
f 22//130 112//130 24//130 23//130
f 113//131 23//131 114//131 115//131
f 113//132 115//132 116//132 60//132
f 113//128 60//133 59//133 64//129
f 116//134 115//135 6//135 117//136
f 186//137 187//137 118//137 43//137
f 117//136 108//138 116//134
f 116//139 108//139 99//139 60//139
f 119//140 120//141 67//142 61//143
f 119//140 61//143 60//144 99//144
f 120//141 121//145 67//142
f 121//145 120//141 96//146 95//146
f 121//147 95//97 94//96 122//148
f 121//149 122//150 65//151 67//149
f 122//148 94//96 70//61 69//60
f 122//150 69//60 66//152 65//151
f 96//99 123//153 124//154 125//155
f 96//99 125//155 97//100
f 125//156 124//156 126//157 127//158
f 125//155 127//159 98//102 97//100
f 127//158 126//157 128//160 129//161
f 127//159 129//162 130//163 98//102
f 130//163 129//162 34//25 37//24
f 130//163 37//24 92//93 131//164
f 130//163 131//164 93//103 98//102
f 131//164 92//93 71//64 70//61
f 131//164 70//61 94//96 93//95
f 129//161 128//160 35//22 34//21
f 128//165 126//166 110//167 132//168
f 128//165 132//168 133//169 35//170
f 133//171 132//172 103//173 134//171
f 133//174 134//175 136//176 135//174
f 133//169 135//177 74//177 35//170
f 135//30 136//30 138//30 139//30
f 135//30 139//30 137//30 74//30
f 141//30 142//30 143//30
f 142//30 144//30 143//30
f 143//30 144//30 145//30
f 145//30 146//30 72//30 143//30
f 146//30 147//30 73//30 72//30
f 148//30 149//30 150//30 112//30
f 150//30 151//30 24//30 112//30
f 151//30 152//30 25//30 24//30
f 152//30 153//30 26//30 25//30
f 153//30 158//30 154//30 26//30
f 154//178 155//179 156//180
f 154//178 156//180 27//181 26//182
f 156//180 155//179 56//183
f 156//180 56//183 114//184 27//181
f 155//30 154//30 158//30 157//30
f 155//30 157//30 57//30 55//30
f 143//185 72//62 71//64
f 162//30 165//30 163//30
f 163//30 165//30 32//30 164//30
f 164//30 32//30 8//30 106//30
f 165//186 33//18 32//17
f 165//187 168//188 166//189
f 165//190 166//189 77//75 33//74
f 166//189 168//188 169//191 167//192
f 166//189 167//192 102//112 77//75
f 167//192 169//191 136//176 134//175
f 167//193 134//193 103//110 102//109
f 169//30 168//30 160//30 159//30
f 169//30 159//30 138//30 136//30
f 168//30 165//30 161//30 160//30
f 165//30 162//30 161//30
f 132//172 110//122 101//106 103//173
f 126//166 124//194 111//194 110//167
f 124//154 123//153 170//195 111//196
f 170//197 171//198 82//199
f 170//195 82//200 111//196
f 171//198 109//117 172//201 173//202
f 171//198 173//202 83//203 82//199
f 171//198 170//197 107//29 109//117
f 173//204 172//201 86//90 85//205
f 173//204 85//205 84//206 83//206
f 172//201 76//68 87//91 86//90
f 172//201 109//117 40//28 76//68
f 54//207 108//207 187//207 186//207
f 117//208 6//208 118//208
f 115//209 114//184 56//183 6//209
f 114//210 23//2 1//1 27//6
f 112//126 63//51 62//50 148//211
f 148//212 62//212 100//212 21//212
f 21//30 174//30 149//30 148//30
f 21//30 73//30 147//30 174//30
f 105//30 14//30 91//30 175//30
f 175//30 91//30 176//30 177//30
f 177//30 176//30 43//30 178//30
f 178//30 43//30 118//30 179//30
f 179//30 118//30 6//30 58//30
f 176//213 91//214 19//113 182//215
f 185//30 46//30 45//30 180//30
f 182//215 104//216 39//217 38//218
f 182//215 38//218 43//219
f 104//116 47//115 50//220 39//220
f 100//124 66//152 69//60 68//59
f 92//93 15//92 143//185 71//64
f 87//221 76//68 75//67 183//221
f 87//222 183//223 51//224 53//222
f 183//225 75//67 50//39 49//38
f 183//223 49//37 48//36 51//224
f 28//72 79//71 80//83 84//82
f 81//80 80//79 79//77 78//76
f 184//40 185//42 42//226
f 14//114 19//113 91//214
f 3//13 29//12 41//227 42//227
f 41//228 52//228 184//40 42//226
f 155//179 55//229 56//183
f 182//215 43//219 176//213
f 19//113 104//216 182//215
f 15//30 36//30 140//30 141//30
f 36//30 74//30 137//30 140//30
f 185//42 48//36 46//35
f 181//230 88//231 3//231 42//226
f 181//230 42//226 185//42
f 89//30 181//30 185//30 180//30
f 89//30 88//30 181//30
f 107//30 170//30 123//30 96//30 120//30 119//30 99//30 108//30 54//30
f 54//232 186//232 43//232
f 117//233 118//233 187//233 108//233
