# Blender v2.91.0 OBJ File: 'Terrain.blend'
# www.blender.org
mtllib Water-OutsideCorner.mtl
o Water-OutsideCorner_Plane.006
v 1.000000 -1.000000 0.166666
v 1.000000 -1.000000 -0.000000
v 1.000000 -1.150000 -1.000000
v -1.000000 -1.150000 -1.000000
v 1.000000 -1.150000 1.000000
v -1.000000 -1.150000 1.000000
v -1.000000 -1.250000 1.000000
v -0.666666 -1.250000 1.000000
v -0.333333 -1.250000 1.000000
v 0.000000 -1.250000 1.000000
v 0.166667 -1.250000 1.000000
v 0.333334 -1.250000 1.000000
v 0.666667 -1.250000 1.000000
v -1.000000 -1.128668 -0.280830
v -1.000000 -1.000000 -0.775975
v -1.000000 -1.064334 -0.441446
v -1.000000 -1.017238 -0.622682
v -0.666667 -1.128668 -0.118955
v -0.666667 -1.064334 -0.290733
v -0.666667 -1.017238 -0.502463
v -0.333333 -1.128668 0.181669
v -0.333333 -1.064334 -0.010838
v -0.333333 -1.017238 -0.279200
v 0.000000 -1.128668 0.343544
v 0.000000 -1.064334 0.139875
v 0.166667 -1.128668 0.297294
v -1.000000 -1.250000 0.526432
v -1.000000 -1.241161 0.226553
v -1.000000 -1.184027 -0.170009
v -1.000000 -1.217013 -0.028362
v -0.666666 -1.250000 0.600289
v -0.666667 -1.217013 0.121720
v -0.666667 -1.184027 -0.008134
v -0.666667 -1.241161 0.344418
v -0.333333 -1.250000 0.737451
v -0.333333 -1.184027 0.292490
v -0.333333 -1.217013 0.400445
v -0.333333 -1.241161 0.563312
v 0.000000 -1.241161 0.681177
v 0.000000 -1.250000 0.811308
v 0.000000 -1.184027 0.454365
v 0.000000 -1.217013 0.550527
v 0.166667 -1.250000 0.790206
v 0.166667 -1.184027 0.408115
v 0.166667 -1.241161 0.647501
v 0.166667 -1.217013 0.507646
v 0.333334 -1.250000 0.737451
v 0.333334 -1.241161 0.563311
v 0.333333 -1.217013 0.400444
v -1.000000 -1.000000 -1.000000
v 1.000000 -1.250000 1.000000
v 1.000000 -1.250000 -1.000000
v 1.000000 -1.250000 -0.666667
v 1.000000 -1.250000 -0.333334
v 1.000000 -1.250000 -0.000000
v 1.000000 -1.250000 0.166666
v 1.000000 -1.250000 0.333333
v 1.000000 -1.250000 0.666666
v -0.280831 -1.128668 -1.000000
v -0.775975 -1.000000 -1.000000
v -0.441447 -1.064334 -1.000000
v -0.622682 -1.017238 -1.000000
v -0.118956 -1.128668 -0.666667
v -0.290734 -1.064334 -0.666667
v -0.502464 -1.017238 -0.666666
v 0.181669 -1.128668 -0.333333
v -0.010838 -1.064334 -0.333333
v -0.279200 -1.017238 -0.333333
v 0.343544 -1.128668 -0.000000
v 0.139875 -1.064334 -0.000000
v 0.297294 -1.128668 0.166667
v 0.526432 -1.250000 -1.000000
v 0.226552 -1.241161 -1.000000
v -0.170009 -1.184027 -1.000000
v -0.028363 -1.217013 -1.000000
v 0.600288 -1.250000 -0.666667
v 0.121720 -1.217013 -0.666667
v -0.008135 -1.184027 -0.666667
v 0.344418 -1.241161 -0.666667
v 0.737451 -1.250000 -0.333333
v 0.292490 -1.184027 -0.333333
v 0.400444 -1.217013 -0.333333
v 0.563311 -1.241161 -0.333333
v 0.681177 -1.241161 -0.000000
v 0.811308 -1.250000 -0.000000
v 0.454365 -1.184027 -0.000000
v 0.550527 -1.217013 -0.000000
v 0.790206 -1.250000 0.166666
v 0.408115 -1.184027 0.166667
v 0.647501 -1.241161 0.166666
v 0.507646 -1.217013 0.166667
v 0.737451 -1.250000 0.333333
v 0.563312 -1.241161 0.333333
v 0.400445 -1.217013 0.333333
v -0.666667 -1.002719 -0.666666
v -0.333333 -1.013811 -0.333333
v 0.111156 -1.064334 0.111156
v 0.166667 -1.086750 0.166667
v 0.243790 -1.128668 0.243790
v 0.333333 -1.196507 0.333333
v 0.309219 -1.184027 0.309219
v 0.472152 -1.241161 0.472152
v 0.369883 -1.217013 0.369883
v 0.666667 -1.250000 0.666666
v -0.706894 -1.000000 -0.706893
v -0.248664 -1.017238 -0.248663
v 0.000000 -1.042292 0.000000
v 0.619640 -1.250000 0.619639
vt 0.000000 0.585004
vt 0.166667 0.504067
vt 0.166667 0.559478
vt 0.000000 0.640415
vt 0.000001 0.236785
vt 0.000001 0.000000
vt 0.166667 0.000000
vt 0.166667 0.199856
vt 0.333334 0.353755
vt 0.333334 0.409166
vt 0.500000 0.272818
vt 0.500000 0.328228
vt 0.583334 0.295943
vt 0.583334 0.351353
vt 0.833333 0.166667
vt 0.833333 0.000000
vt 1.000000 0.000000
vt 0.333334 0.000000
vt 0.333334 0.131275
vt 0.500000 0.000000
vt 0.500000 0.094346
vt 0.583334 0.000000
vt 0.583334 0.104897
vt 0.666667 0.000000
vt 0.666667 0.131275
vt 0.000000 0.999999
vt 0.000000 0.887987
vt 0.146553 0.853447
vt 0.000000 0.811340
vt 0.166667 0.751231
vt 0.166667 0.833333
vt 0.000000 0.720722
vt 0.166667 0.645366
vt 0.333333 0.666667
vt 0.333333 0.639600
vt 0.333334 0.505419
vt 0.375668 0.624332
vt 0.500000 0.430063
vt 0.500000 0.500000
vt 0.555578 0.444422
vt 0.583334 0.416667
vt 0.621895 0.378105
vt 0.166667 0.327791
vt 0.000000 0.386723
vt 0.166667 0.439140
vt 0.000000 0.514181
vt 0.333334 0.218344
vt 0.333334 0.299778
vt 0.500000 0.159411
vt 0.500000 0.224737
vt 0.583334 0.176250
vt 0.583334 0.246178
vt 0.666667 0.218344
vt 0.666667 0.299778
vt 0.809820 0.190180
vt 0.736076 0.263924
vt 0.684941 0.315059
vt 0.666667 0.333333
vt 0.654610 0.345390
vt 0.414995 0.999999
vt 0.359585 0.999999
vt 0.440522 0.833333
vt 0.495933 0.833333
vt 0.763216 0.999999
vt 0.800144 0.833333
vt 1.000000 0.833333
vt 1.000000 0.999999
vt 0.590835 0.666667
vt 0.646245 0.666667
vt 0.671772 0.500000
vt 0.727182 0.500000
vt 0.648647 0.416667
vt 0.704057 0.416667
vt 1.000000 0.166667
vt 0.868725 0.666667
vt 1.000000 0.666667
vt 0.905654 0.500000
vt 1.000000 0.500000
vt 0.895103 0.416667
vt 1.000000 0.416667
vt 0.868725 0.333333
vt 1.000000 0.333333
vt 0.112013 0.999999
vt 0.248769 0.833333
vt 0.188659 0.999999
vt 0.354633 0.833333
vt 0.279277 0.999999
vt 0.360400 0.666667
vt 0.494581 0.666667
vt 0.569938 0.500000
vt 0.613276 0.999999
vt 0.672209 0.833333
vt 0.485818 0.999999
vt 0.560860 0.833333
vt 0.781656 0.666667
vt 0.700222 0.666667
vt 0.840589 0.500000
vt 0.775263 0.500000
vt 0.823751 0.416667
vt 0.753823 0.416667
vt 0.781656 0.333333
vt 0.700223 0.333333
vt 1.000000 1.000000
vt 0.000000 0.999999
vt 0.000001 0.000000
vt 1.000000 0.000000
vn -0.1760 0.9140 0.3656
vn -0.2413 0.9075 0.3437
vn -0.2524 0.8906 0.3784
vn -0.1838 0.9038 0.3863
vn -0.0052 0.9998 0.0181
vn 0.0000 1.0000 0.0000
vn -0.0088 0.9998 0.0197
vn -0.2298 0.9087 0.3483
vn -0.2586 0.8909 0.3734
vn -0.0342 0.9298 0.3665
vn -0.0410 0.9191 0.3919
vn 0.1701 0.9145 0.3669
vn 0.1838 0.9081 0.3763
vn -0.0089 0.9997 0.0242
vn -0.0011 0.9996 0.0273
vn 0.0075 0.9995 0.0287
vn 0.0110 0.9996 0.0251
vn -0.0126 0.9990 0.0421
vn 0.0286 0.9992 0.0286
vn -0.0550 0.9869 0.1513
vn -0.0751 0.9861 0.1483
vn 0.0298 0.9991 0.0298
vn -0.1217 0.9525 0.2790
vn -0.1624 0.9490 0.2700
vn 0.0164 0.9997 0.0164
vn -0.0781 0.9884 0.1301
vn -0.1690 0.9529 0.2517
vn 0.0448 0.9980 0.0448
vn -0.0262 0.9681 0.2490
vn 0.0612 0.9962 0.0612
vn 0.1622 0.9733 0.1622
vn 0.2084 0.9556 0.2084
vn 0.3150 0.8953 0.3150
vn -0.0458 0.9958 0.0783
vn -0.0281 0.9969 0.0736
vn -0.1277 0.9740 0.1869
vn -0.0846 0.9789 0.1859
vn -0.0452 0.9945 0.0943
vn -0.1230 0.9703 0.2081
vn -0.0061 0.9943 0.1062
vn -0.0175 0.9738 0.2268
vn 0.0370 0.9933 0.1094
vn 0.0963 0.9681 0.2311
vn 0.0564 0.9935 0.0985
vn 0.1515 0.9641 0.2180
vn 0.0125 0.9998 0.0125
vn 0.0712 0.9949 0.0712
vn 0.1875 0.9642 0.1875
vn 0.2514 0.9346 0.2514
vn 0.3011 0.9048 0.3011
vn 0.3656 0.9140 -0.1760
vn 0.3863 0.9038 -0.1838
vn 0.3784 0.8906 -0.2524
vn 0.3437 0.9075 -0.2413
vn 0.0181 0.9998 -0.0052
vn 0.0197 0.9998 -0.0088
vn 0.3734 0.8909 -0.2586
vn 0.3483 0.9087 -0.2298
vn 0.3919 0.9191 -0.0410
vn 0.3665 0.9298 -0.0342
vn 0.3763 0.9081 0.1838
vn 0.3669 0.9145 0.1701
vn 0.0242 0.9997 -0.0089
vn 0.0273 0.9996 -0.0011
vn 0.0287 0.9995 0.0075
vn 0.0251 0.9996 0.0110
vn 0.0421 0.9990 -0.0126
vn 0.1483 0.9861 -0.0751
vn 0.1513 0.9869 -0.0550
vn 0.2700 0.9490 -0.1624
vn 0.2790 0.9525 -0.1217
vn 0.1301 0.9884 -0.0781
vn 0.2517 0.9529 -0.1690
vn 0.2490 0.9681 -0.0262
vn 0.0736 0.9969 -0.0281
vn 0.0783 0.9958 -0.0458
vn 0.1859 0.9789 -0.0846
vn 0.1869 0.9740 -0.1277
vn 0.0943 0.9945 -0.0452
vn 0.2081 0.9703 -0.1230
vn 0.1062 0.9943 -0.0061
vn 0.2268 0.9738 -0.0175
vn 0.1094 0.9933 0.0370
vn 0.2311 0.9681 0.0963
vn 0.0985 0.9935 0.0564
vn 0.2180 0.9641 0.1515
usemtl Ground
s 1
f 29/1/1 33/2/2 18/3/3 14/4/4
f 27/5/5 7/6/6 8/7/6 31/8/7
f 33/2/2 36/9/8 21/10/9 18/3/3
f 36/9/8 41/11/10 24/12/11 21/10/9
f 41/11/10 44/13/12 26/14/13 24/12/11
f 104/15/6 13/16/6 51/17/6
f 31/8/7 8/7/6 9/18/6 35/19/14
f 35/19/14 9/18/6 10/20/6 40/21/15
f 40/21/15 10/20/6 11/22/6 43/23/16
f 43/23/16 11/22/6 12/24/6 47/25/17
f 50/26/6 15/27/18 105/28/19
f 105/28/19 15/27/18 17/29/20 20/30/21 95/31/22
f 20/30/21 17/29/20 16/32/23 19/33/24
f 19/33/24 16/32/23 14/4/4 18/3/3
f 96/34/25 95/31/22 20/30/21 23/35/26
f 23/35/26 20/30/21 19/33/24 22/36/27
f 22/36/27 19/33/24 18/3/3 21/10/9
f 106/37/28 96/34/25 23/35/26
f 106/37/28 23/35/26 22/36/27 25/38/29 107/39/30
f 25/38/29 22/36/27 21/10/9 24/12/11
f 97/40/31 107/39/30 25/38/29
f 97/40/31 25/38/29 24/12/11 26/14/13 98/41/32
f 99/42/33 98/41/32 26/14/13
f 27/5/5 31/8/7 34/43/34 28/44/35
f 28/44/35 34/43/34 32/45/36 30/46/37
f 30/46/37 32/45/36 33/2/2 29/1/1
f 31/8/7 35/19/14 38/47/38 34/43/34
f 34/43/34 38/47/38 37/48/39 32/45/36
f 32/45/36 37/48/39 36/9/8 33/2/2
f 35/19/14 40/21/15 39/49/40 38/47/38
f 38/47/38 39/49/40 42/50/41 37/48/39
f 37/48/39 42/50/41 41/11/10 36/9/8
f 40/21/15 43/23/16 45/51/42 39/49/40
f 39/49/40 45/51/42 46/52/43 42/50/41
f 42/50/41 46/52/43 44/13/12 41/11/10
f 43/23/16 47/25/17 48/53/44 45/51/42
f 45/51/42 48/53/44 49/54/45 46/52/43
f 47/25/17 12/24/6 13/16/6 104/15/6 108/55/46
f 47/25/17 108/55/46 102/56/47 48/53/44
f 48/53/44 102/56/47 103/57/48 49/54/45
f 46/52/43 49/54/45 100/58/49 101/59/50 44/13/12
f 49/54/45 103/57/48 100/58/49
f 44/13/12 101/59/50 99/42/33 26/14/13
f 74/60/51 59/61/52 63/62/53 78/63/54
f 72/64/55 76/65/56 53/66/6 52/67/6
f 78/63/54 63/62/53 66/68/57 81/69/58
f 81/69/58 66/68/57 69/70/59 86/71/60
f 86/71/60 69/70/59 71/72/61 89/73/62
f 104/15/6 51/17/6 58/74/6
f 76/65/56 80/75/63 54/76/6 53/66/6
f 80/75/63 85/77/64 55/78/6 54/76/6
f 85/77/64 88/79/65 56/80/6 55/78/6
f 88/79/65 92/81/66 57/82/6 56/80/6
f 50/26/6 105/28/19 60/83/67
f 105/28/19 95/31/22 65/84/68 62/85/69 60/83/67
f 65/84/68 64/86/70 61/87/71 62/85/69
f 64/86/70 63/62/53 59/61/52 61/87/71
f 96/34/25 68/88/72 65/84/68 95/31/22
f 68/88/72 67/89/73 64/86/70 65/84/68
f 67/89/73 66/68/57 63/62/53 64/86/70
f 106/37/28 68/88/72 96/34/25
f 106/37/28 107/39/30 70/90/74 67/89/73 68/88/72
f 70/90/74 69/70/59 66/68/57 67/89/73
f 97/40/31 70/90/74 107/39/30
f 97/40/31 98/41/32 71/72/61 69/70/59 70/90/74
f 99/42/33 71/72/61 98/41/32
f 72/64/55 73/91/75 79/92/76 76/65/56
f 73/91/75 75/93/77 77/94/78 79/92/76
f 75/93/77 74/60/51 78/63/54 77/94/78
f 76/65/56 79/92/76 83/95/79 80/75/63
f 79/92/76 77/94/78 82/96/80 83/95/79
f 77/94/78 78/63/54 81/69/58 82/96/80
f 80/75/63 83/95/79 84/97/81 85/77/64
f 83/95/79 82/96/80 87/98/82 84/97/81
f 82/96/80 81/69/58 86/71/60 87/98/82
f 85/77/64 84/97/81 90/99/83 88/79/65
f 84/97/81 87/98/82 91/100/84 90/99/83
f 87/98/82 86/71/60 89/73/62 91/100/84
f 88/79/65 90/99/83 93/101/85 92/81/66
f 90/99/83 91/100/84 94/102/86 93/101/85
f 92/81/66 108/55/46 104/15/6 58/74/6 57/82/6
f 92/81/66 93/101/85 102/56/47 108/55/46
f 93/101/85 94/102/86 103/57/48 102/56/47
f 91/100/84 89/73/62 101/59/50 100/58/49 94/102/86
f 94/102/86 100/58/49 103/57/48
f 89/73/62 71/72/61 99/42/33 101/59/50
usemtl Water
s off
f 3/103/6 4/104/6 6/105/6 5/106/6
l 1 2
