# Blender v2.91.0 OBJ File: 'Terrain.blend'
# www.blender.org
mtllib Water-Edge.mtl
o Water-Edge_Plane.010
v -1.000000 -1.000000 -1.000000
v 1.000000 -1.000000 -1.000000
v 1.000000 -1.250000 1.000000
v 0.666667 -1.000000 -1.000000
v 0.333333 -1.000000 -1.000000
v 0.166667 -1.000000 -1.000000
v -0.000000 -1.000000 -1.000000
v -0.333333 -1.000000 -1.000000
v -0.666667 -1.000000 -1.000000
v -1.000000 -1.250000 1.000000
v -0.666667 -1.250000 1.000000
v -0.333333 -1.250000 1.000000
v 0.000000 -1.250000 1.000000
v 0.166667 -1.250000 1.000000
v 0.333333 -1.250000 1.000000
v 0.666667 -1.250000 1.000000
v -1.000000 -1.128668 -0.280830
v -1.000000 -1.000000 -0.775975
v -1.000000 -1.064334 -0.441446
v -1.000000 -1.017238 -0.622682
v 1.000000 -1.000000 -0.775975
v 1.000000 -1.128668 -0.280830
v 1.000000 -1.017238 -0.622682
v 1.000000 -1.064334 -0.441446
v -0.666667 -1.128668 -0.118956
v -0.666667 -1.000000 -0.697412
v -0.666667 -1.064334 -0.290733
v -0.666667 -1.017238 -0.502463
v -0.333333 -1.128668 0.181669
v -0.333333 -1.000000 -0.551511
v -0.333333 -1.064334 -0.010838
v -0.333333 -1.017238 -0.279200
v 0.000000 -1.128668 0.343544
v 0.000000 -1.017238 -0.158982
v 0.000000 -1.000000 -0.472948
v 0.000000 -1.064334 0.139875
v 0.166667 -1.128668 0.297294
v 0.166667 -1.000000 -0.495395
v 0.166667 -1.064334 0.096814
v 0.166667 -1.017238 -0.193330
v 0.333333 -1.128668 0.181669
v 0.333333 -1.000000 -0.551511
v 0.333333 -1.064334 -0.010838
v 0.333333 -1.017238 -0.279200
v 0.666667 -1.064334 -0.290733
v 0.666667 -1.000000 -0.697412
v 0.666667 -1.128668 -0.118956
v 0.666667 -1.017238 -0.502463
v -1.000000 -1.250000 0.526432
v -1.000000 -1.241161 0.226552
v 1.000000 -1.184027 -0.170009
v 1.000000 -1.250000 0.526432
v 1.000000 -1.217013 -0.028363
v 1.000000 -1.241161 0.226552
v -1.000000 -1.184027 -0.170009
v -1.000000 -1.217013 -0.028363
v -0.666667 -1.250000 0.600288
v -0.666667 -1.217013 0.121720
v -0.666667 -1.184027 -0.008135
v -0.666667 -1.241161 0.344418
v -0.333333 -1.250000 0.737451
v -0.333333 -1.184027 0.292490
v -0.333333 -1.217013 0.400444
v -0.333333 -1.241161 0.563311
v 0.000000 -1.241161 0.681177
v 0.000000 -1.250000 0.811308
v 0.000000 -1.184027 0.454365
v 0.000000 -1.217013 0.550527
v 0.166667 -1.250000 0.790206
v 0.166667 -1.184027 0.408115
v 0.166667 -1.241161 0.647501
v 0.166667 -1.217013 0.507646
v 0.333333 -1.250000 0.737451
v 0.333333 -1.184027 0.292490
v 0.333333 -1.241161 0.563311
v 0.333333 -1.217013 0.400445
v 0.666667 -1.184027 -0.008134
v 0.666667 -1.241161 0.344418
v 0.666667 -1.217013 0.121720
v 0.666667 -1.250000 0.600289
v -1.000000 -1.150000 -1.000000
v -1.000000 -1.150000 1.000000
v 1.000000 -1.150000 -1.000000
v 1.000000 -1.150000 1.000000
vt 0.414995 0.000000
vt 0.495933 0.166667
vt 0.440522 0.166667
vt 0.359585 0.000000
vt 0.763216 0.000000
vt 1.000000 0.000000
vt 1.000000 0.166667
vt 0.800144 0.166667
vt 0.646245 0.333334
vt 0.590835 0.333334
vt 0.727182 0.500000
vt 0.671772 0.500000
vt 0.704057 0.583333
vt 0.648647 0.583333
vt 0.646245 0.666667
vt 0.590835 0.666667
vt 0.495933 0.833333
vt 0.440522 0.833333
vt 0.800144 0.833333
vt 1.000000 0.833333
vt 1.000000 1.000000
vt 0.763216 1.000000
vt 1.000000 0.333334
vt 0.868725 0.333334
vt 1.000000 0.500000
vt 0.905654 0.500000
vt 1.000000 0.583333
vt 0.895103 0.583333
vt 1.000000 0.666667
vt 0.868725 0.666667
vt 0.000000 0.833333
vt 0.151294 0.833333
vt 0.112013 1.000000
vt 0.000000 1.000000
vt 0.000000 0.000000
vt 0.112013 0.000000
vt 0.151294 0.166667
vt 0.000000 0.166667
vt 0.224245 0.333333
vt 0.000000 0.333333
vt 0.263526 0.500000
vt 0.000000 0.500000
vt 0.252303 0.583333
vt 0.000000 0.583333
vt 0.224245 0.666667
vt 0.000000 0.666667
vt 0.414995 1.000000
vt 0.359585 1.000000
vt 0.248768 0.833333
vt 0.188659 1.000000
vt 0.354633 0.833333
vt 0.279277 1.000000
vt 0.188659 0.000000
vt 0.248768 0.166667
vt 0.279277 0.000000
vt 0.354633 0.166667
vt 0.360400 0.333333
vt 0.494581 0.333333
vt 0.420509 0.500000
vt 0.569938 0.500000
vt 0.403335 0.583333
vt 0.548407 0.583333
vt 0.360400 0.666667
vt 0.494581 0.666667
vt 0.613276 1.000000
vt 0.672209 0.833333
vt 0.485819 1.000000
vt 0.560860 0.833333
vt 0.672209 0.166667
vt 0.613276 0.000000
vt 0.560860 0.166667
vt 0.485819 0.000000
vt 0.781656 0.333334
vt 0.700222 0.333334
vt 0.840588 0.500000
vt 0.775263 0.500000
vt 0.823751 0.583333
vt 0.753823 0.583333
vt 0.781656 0.666667
vt 0.700222 0.666667
vt 0.000000 0.000000
vt 1.000000 0.000000
vt 1.000000 1.000000
vt 0.000000 1.000000
vn -0.1760 0.9140 0.3656
vn -0.2413 0.9075 0.3437
vn -0.2524 0.8906 0.3784
vn -0.1838 0.9038 0.3863
vn -0.0052 0.9998 0.0181
vn 0.0000 1.0000 0.0000
vn -0.0088 0.9998 0.0197
vn -0.2298 0.9087 0.3483
vn -0.2586 0.8909 0.3734
vn -0.0342 0.9298 0.3665
vn -0.0410 0.9191 0.3919
vn 0.1701 0.9146 0.3668
vn 0.1832 0.9078 0.3772
vn 0.2685 0.8988 0.3465
vn 0.2911 0.8833 0.3675
vn 0.2413 0.9075 0.3437
vn 0.2524 0.8906 0.3784
vn 0.0088 0.9998 0.0197
vn 0.0052 0.9998 0.0181
vn -0.0089 0.9997 0.0242
vn -0.0011 0.9996 0.0273
vn 0.0075 0.9995 0.0287
vn 0.0110 0.9996 0.0244
vn 0.0159 0.9990 0.0418
vn 0.0125 0.9990 0.0421
vn -0.0125 0.9990 0.0421
vn -0.0159 0.9990 0.0418
vn -0.0166 0.9992 0.0357
vn -0.0024 0.9995 0.0320
vn 0.0099 0.9995 0.0309
vn 0.0179 0.9992 0.0351
vn 0.1760 0.9140 0.3656
vn 0.1838 0.9038 0.3863
vn 0.0713 0.9868 0.1455
vn 0.0550 0.9869 0.1513
vn 0.1624 0.9490 0.2700
vn 0.1217 0.9525 0.2790
vn -0.0550 0.9869 0.1513
vn -0.0713 0.9868 0.1455
vn -0.1217 0.9525 0.2790
vn -0.1624 0.9490 0.2700
vn -0.0742 0.9891 0.1271
vn -0.1682 0.9532 0.2511
vn -0.0113 0.9929 0.1182
vn -0.0264 0.9681 0.2491
vn 0.0464 0.9923 0.1147
vn 0.1126 0.9641 0.2405
vn 0.0810 0.9887 0.1257
vn 0.1864 0.9506 0.2481
vn 0.0281 0.9969 0.0736
vn 0.0458 0.9958 0.0783
vn 0.0846 0.9789 0.1859
vn 0.1277 0.9740 0.1869
vn -0.0458 0.9958 0.0783
vn -0.0281 0.9969 0.0736
vn -0.1277 0.9740 0.1869
vn -0.0846 0.9789 0.1859
vn -0.0452 0.9945 0.0943
vn -0.1230 0.9703 0.2081
vn -0.0061 0.9943 0.1062
vn -0.0175 0.9738 0.2268
vn 0.0370 0.9933 0.1094
vn 0.0963 0.9681 0.2311
vn 0.0554 0.9940 0.0944
vn 0.1478 0.9669 0.2081
usemtl Ground
s 1
f 55/1/1 59/2/2 25/3/3 17/4/4
f 49/5/5 10/6/6 11/7/6 57/8/7
f 59/2/2 62/9/8 29/10/9 25/3/3
f 62/9/8 67/11/10 33/12/11 29/10/9
f 67/11/10 70/13/12 37/14/13 33/12/11
f 70/13/12 74/15/14 41/16/15 37/14/13
f 74/15/14 77/17/16 47/18/17 41/16/15
f 80/19/18 16/20/6 3/21/6 52/22/19
f 57/8/7 11/7/6 12/23/6 61/24/20
f 61/24/20 12/23/6 13/25/6 66/26/21
f 66/26/21 13/25/6 14/27/6 69/28/22
f 69/28/22 14/27/6 15/29/6 73/30/23
f 73/30/23 15/29/6 16/20/6 80/19/18
f 4/31/6 46/32/24 21/33/25 2/34/6
f 1/35/6 18/36/26 26/37/27 9/38/6
f 9/38/6 26/37/27 30/39/28 8/40/6
f 8/40/6 30/39/28 35/41/29 7/42/6
f 7/42/6 35/41/29 38/43/30 6/44/6
f 6/44/6 38/43/30 42/45/31 5/46/6
f 5/46/6 42/45/31 46/32/24 4/31/6
f 77/17/16 51/47/32 22/48/33 47/18/17
f 21/33/25 46/32/24 48/49/34 23/50/35
f 23/50/35 48/49/34 45/51/36 24/52/37
f 24/52/37 45/51/36 47/18/17 22/48/33
f 26/37/27 18/36/26 20/53/38 28/54/39
f 28/54/39 20/53/38 19/55/40 27/56/41
f 27/56/41 19/55/40 17/4/4 25/3/3
f 30/39/28 26/37/27 28/54/39 32/57/42
f 32/57/42 28/54/39 27/56/41 31/58/43
f 31/58/43 27/56/41 25/3/3 29/10/9
f 35/41/29 30/39/28 32/57/42 34/59/44
f 34/59/44 32/57/42 31/58/43 36/60/45
f 36/60/45 31/58/43 29/10/9 33/12/11
f 38/43/30 35/41/29 34/59/44 40/61/46
f 40/61/46 34/59/44 36/60/45 39/62/47
f 39/62/47 36/60/45 33/12/11 37/14/13
f 42/45/31 38/43/30 40/61/46 44/63/48
f 44/63/48 40/61/46 39/62/47 43/64/49
f 43/64/49 39/62/47 37/14/13 41/16/15
f 46/32/24 42/45/31 44/63/48 48/49/34
f 48/49/34 44/63/48 43/64/49 45/51/36
f 45/51/36 43/64/49 41/16/15 47/18/17
f 80/19/18 52/22/19 54/65/50 78/66/51
f 78/66/51 54/65/50 53/67/52 79/68/53
f 79/68/53 53/67/52 51/47/32 77/17/16
f 49/5/5 57/8/7 60/69/54 50/70/55
f 50/70/55 60/69/54 58/71/56 56/72/57
f 56/72/57 58/71/56 59/2/2 55/1/1
f 57/8/7 61/24/20 64/73/58 60/69/54
f 60/69/54 64/73/58 63/74/59 58/71/56
f 58/71/56 63/74/59 62/9/8 59/2/2
f 61/24/20 66/26/21 65/75/60 64/73/58
f 64/73/58 65/75/60 68/76/61 63/74/59
f 63/74/59 68/76/61 67/11/10 62/9/8
f 66/26/21 69/28/22 71/77/62 65/75/60
f 65/75/60 71/77/62 72/78/63 68/76/61
f 68/76/61 72/78/63 70/13/12 67/11/10
f 69/28/22 73/30/23 75/79/64 71/77/62
f 71/77/62 75/79/64 76/80/65 72/78/63
f 72/78/63 76/80/65 74/15/14 70/13/12
f 73/30/23 80/19/18 78/66/51 75/79/64
f 75/79/64 78/66/51 79/68/53 76/80/65
f 76/80/65 79/68/53 77/17/16 74/15/14
usemtl Water
s off
f 81/81/6 82/82/6 84/83/6 83/84/6
