# Blender v2.93.4 OBJ File: 'Terrain1.blend'
# www.blender.org
mtllib OutSideCorner_LowRes.mtl
o Plane
v -1.000000 -1.000000 1.000000
v -1.000000 0.929867 -0.405060
v -1.000000 0.174011 0.311445
v -1.000000 0.283724 0.069103
v -0.500000 -1.000000 1.000000
v 0.000000 -1.000000 1.000000
v 0.500000 -1.000000 1.000000
v 0.000000 0.152959 0.282635
v -0.423720 0.179114 0.327287
v -0.000000 0.283678 0.069133
v -0.500000 0.191337 0.083999
v -0.746761 0.222365 0.372170
v -0.745564 0.248894 0.095725
v -0.838330 0.890982 -0.462809
v -0.750000 -1.000000 1.000000
v -0.250000 -1.000000 1.000000
v -0.251200 0.221738 0.370446
v -0.254577 0.249171 0.095803
v 0.250000 -1.000000 1.000000
v 0.253239 0.222365 0.372170
v 0.750000 -1.000000 1.000000
v -1.002847 -0.891381 0.769224
v -0.500000 -0.881182 0.832977
v -0.000001 -0.913318 0.741936
v 0.500000 -0.881182 0.832977
v -0.741178 -0.848587 0.833355
v -0.258019 -0.850414 0.832571
v 0.258822 -0.848587 0.833355
v 0.741981 -0.850414 0.832571
v 1.000000 -1.000000 -1.000000
v 1.000000 -1.000000 1.000000
v -1.000000 1.000000 -1.000000
v -0.405060 0.929867 -1.000000
v 0.311445 0.174011 -1.000000
v 0.069103 0.283724 -1.000000
v 1.000000 -1.000000 -0.500000
v 1.000000 -1.000000 0.000000
v 1.000000 -1.000000 0.500000
v 0.282635 0.152959 0.000000
v 0.327287 0.179114 -0.423720
v 0.069133 0.283678 -0.000000
v 0.083999 0.191337 -0.500000
v 0.372170 0.222365 -0.746761
v 0.095725 0.248894 -0.745564
v -0.462809 0.890982 -0.838330
v 1.000000 -1.000000 -0.750000
v 1.000000 -1.000000 -0.250000
v 0.370446 0.221738 -0.251200
v 0.095803 0.249171 -0.254577
v 1.000000 -1.000000 0.250000
v 0.372170 0.222365 0.253239
v 1.000000 -1.000000 0.750000
v 0.769224 -0.891381 -1.002847
v 0.832977 -0.881182 -0.500000
v 0.741936 -0.913318 -0.000001
v 0.832977 -0.881182 0.500000
v 0.833355 -0.848587 -0.741178
v 0.832571 -0.850414 -0.258019
v 0.833355 -0.848587 0.258822
v 0.832571 -0.850414 0.741981
v 0.077200 0.273124 0.077200
v -0.500003 0.727830 -0.500003
v -0.000000 0.377872 -0.000000
v 0.543644 -0.274529 0.543644
v -0.622561 0.911894 -0.622561
v -0.785303 0.956429 -0.785303
v -0.204281 0.594140 -0.204281
v 0.357662 0.208384 0.357662
v 0.253752 0.233729 0.253752
v 0.743298 -0.643296 0.743298
v 0.814801 -0.861865 0.814801
vt 0.125069 0.467212
vt 0.250059 0.467212
vt 0.250059 0.615628
vt 0.125069 0.615628
vt 0.375050 0.467212
vt 0.500040 0.467212
vt 0.500040 0.615628
vt 0.375050 0.615628
vt 0.125069 0.073021
vt 0.250059 0.073021
vt 0.375050 0.073021
vt 0.500040 0.073021
vt 0.000079 0.073021
vt 0.000079 0.467212
vt 0.000079 0.615628
vt 0.125069 0.936836
vt 0.000079 0.936836
vt 0.625030 0.073021
vt 0.625030 0.467212
vt 0.750020 0.000079
vt 0.875010 0.000079
vt 0.875010 0.073021
vt 0.750020 0.073021
vt 0.500040 0.000079
vt 0.625030 0.000079
vt 0.250059 0.000079
vt 0.375050 0.000079
vt 0.000079 0.000079
vt 0.125069 0.000079
vt 0.909554 0.073021
vt 0.875010 0.149171
vt 0.665433 0.467212
vt 0.625030 0.530787
vt 0.204783 0.936836
vt 0.125069 0.974708
vt 0.750020 0.298559
vt 0.500040 0.662439
vt 0.375050 0.788235
vt 0.250059 0.850905
vt 0.537964 0.615628
vt 0.000079 0.999921
vt 1.000000 0.000079
vt 0.125069 0.467212
vt 0.125069 0.615628
vt 0.250059 0.615628
vt 0.250059 0.467212
vt 0.375050 0.467212
vt 0.375050 0.615628
vt 0.500040 0.615628
vt 0.500040 0.467212
vt 0.125069 0.073021
vt 0.250059 0.073021
vt 0.375050 0.073021
vt 0.500040 0.073021
vt 0.000079 0.073021
vt 0.000079 0.467212
vt 0.000079 0.615628
vt 0.000079 0.936836
vt 0.125069 0.936836
vt 0.625030 0.467212
vt 0.625030 0.073021
vt 0.750020 0.000079
vt 0.750020 0.073021
vt 0.875010 0.073021
vt 0.875010 0.000079
vt 0.500040 0.000079
vt 0.625030 0.000079
vt 0.250059 0.000079
vt 0.375050 0.000079
vt 0.000079 0.000079
vt 0.125069 0.000079
vn 0.1789 0.9827 0.0474
vn 0.1329 0.9432 0.3046
vn 0.1272 0.4063 0.9049
vn 0.3904 0.3633 0.8460
vn -0.2809 0.3789 0.8818
vn -0.0693 0.9649 0.2532
vn 0.1676 0.6239 0.7633
vn -0.1655 0.4129 0.8956
vn -0.2461 0.9628 0.1116
vn -0.3935 0.3628 0.8447
vn -0.0482 0.7784 0.6259
vn -0.1947 0.8573 0.4766
vn -0.1372 0.8298 0.5409
vn 0.0519 0.7754 0.6293
vn 0.1910 0.8597 0.4738
vn 0.2752 0.3791 0.8835
vn 0.1451 0.9848 0.0951
vn 0.0593 0.9764 0.2079
vn 0.1166 0.4048 0.9069
vn -0.0823 0.4241 0.9019
vn -0.0394 0.6457 0.7626
vn 0.3211 0.6747 0.6646
vn -0.2838 0.6871 0.6689
vn -0.2006 0.9140 0.3526
vn -0.0034 0.5917 0.8062
vn 0.1502 0.9767 0.1530
vn 0.0616 0.7896 0.6105
vn 0.0474 0.9827 0.1789
vn 0.3046 0.9432 0.1329
vn 0.9049 0.4063 0.1272
vn 0.8460 0.3633 0.3904
vn 0.8818 0.3789 -0.2809
vn 0.2532 0.9649 -0.0693
vn 0.7633 0.6239 0.1676
vn 0.8956 0.4129 -0.1655
vn 0.1116 0.9628 -0.2461
vn 0.8447 0.3628 -0.3935
vn 0.6259 0.7784 -0.0482
vn 0.4766 0.8573 -0.1947
vn 0.5409 0.8298 -0.1372
vn 0.6293 0.7754 0.0519
vn 0.4738 0.8597 0.1910
vn 0.8835 0.3791 0.2752
vn 0.0951 0.9848 0.1451
vn 0.2079 0.9764 0.0593
vn 0.9069 0.4048 0.1166
vn 0.9019 0.4241 -0.0823
vn 0.7626 0.6457 -0.0394
vn 0.6646 0.6747 0.3211
vn 0.6689 0.6871 -0.2838
vn 0.3526 0.9140 -0.2006
vn 0.8062 0.5917 -0.0034
vn 0.1530 0.9767 0.1502
vn 0.6105 0.7896 0.0616
usemtl Material.001
s off
f 12/1/1 9/2/1 11/3/1 13/4/1
f 17/5/2 8/6/2 10/7/2 18/8/2
f 26/9/3 23/10/3 9/2/3 12/1/3
f 27/11/4 24/12/4 8/6/4 17/5/4
f 22/13/5 26/9/5 12/1/5 3/14/5
f 3/14/6 12/1/6 13/4/6 4/15/6
f 4/15/7 13/4/7 14/16/7 2/17/7
f 23/10/8 27/11/8 17/5/8 9/2/8
f 9/2/9 17/5/9 18/8/9 11/3/9
f 24/12/10 28/18/10 20/19/10 8/6/10
f 7/20/11 21/21/11 29/22/11 25/23/11
f 6/24/12 19/25/12 28/18/12 24/12/12
f 5/26/11 16/27/11 27/11/11 23/10/11
f 1/28/13 15/29/13 26/9/13 22/13/13
f 19/25/14 7/20/14 25/23/14 28/18/14
f 16/27/15 6/24/15 24/12/15 27/11/15
f 15/29/14 5/26/14 23/10/14 26/9/14
f 29/22/16 71/30/16 70/31/16
f 20/19/17 68/32/17 69/33/17
f 14/16/18 65/34/18 66/35/18
f 28/18/19 25/23/19 64/36/19 68/32/19 20/19/19
f 25/23/20 29/22/20 70/31/20 64/36/20
f 18/8/21 10/7/21 63/37/21 67/38/21
f 13/4/22 11/3/22 62/39/22 65/34/22 14/16/22
f 11/3/23 18/8/23 67/38/23 62/39/23
f 8/6/24 20/19/24 69/33/24 61/40/24 10/7/24
f 10/7/25 61/40/25 63/37/25
f 2/17/26 14/16/26 66/35/26 32/41/26
f 21/21/27 31/42/27 71/30/27 29/22/27
f 43/43/28 44/44/28 42/45/28 40/46/28
f 48/47/29 49/48/29 41/49/29 39/50/29
f 57/51/30 43/43/30 40/46/30 54/52/30
f 58/53/31 48/47/31 39/50/31 55/54/31
f 53/55/32 34/56/32 43/43/32 57/51/32
f 34/56/33 35/57/33 44/44/33 43/43/33
f 35/57/34 33/58/34 45/59/34 44/44/34
f 54/52/35 40/46/35 48/47/35 58/53/35
f 40/46/36 42/45/36 49/48/36 48/47/36
f 55/54/37 39/50/37 51/60/37 59/61/37
f 38/62/38 56/63/38 60/64/38 52/65/38
f 37/66/39 55/54/39 59/61/39 50/67/39
f 36/68/38 54/52/38 58/53/38 47/69/38
f 30/70/40 53/55/40 57/51/40 46/71/40
f 50/67/41 59/61/41 56/63/41 38/62/41
f 47/69/42 58/53/42 55/54/42 37/66/42
f 46/71/41 57/51/41 54/52/41 36/68/41
f 60/64/43 70/31/43 71/30/43
f 51/60/44 69/33/44 68/32/44
f 45/59/45 66/35/45 65/34/45
f 59/61/46 51/60/46 68/32/46 64/36/46 56/63/46
f 56/63/47 64/36/47 70/31/47 60/64/47
f 49/48/48 67/38/48 63/37/48 41/49/48
f 44/44/49 45/59/49 65/34/49 62/39/49 42/45/49
f 42/45/50 62/39/50 67/38/50 49/48/50
f 39/50/51 41/49/51 61/40/51 69/33/51 51/60/51
f 41/49/52 63/37/52 61/40/52
f 33/58/53 32/41/53 66/35/53 45/59/53
f 52/65/54 60/64/54 71/30/54 31/42/54
